<svg width="1073" height="1073" viewBox="0 0 1073 1073" fill="none" xmlns="http://www.w3.org/2000/svg">
<rect width="1073" height="1073" rx="536.5" fill="white"/>
<path fill-rule="evenodd" clip-rule="evenodd" d="M424.663 337L443.423 390.309H377.563C296.839 390.309 231.375 455.773 231.375 536.497C231.375 617.221 296.839 682.685 377.563 682.685H546.145L564.905 735.994H377.629C267.311 736.126 178 646.815 178 536.563C178 426.311 267.311 337 377.563 337H424.663ZM619.536 513.178L677.073 682.751H695.503C776.227 682.751 841.691 617.287 841.691 536.563C841.691 455.839 776.227 390.375 695.503 390.375H519.391L500.564 337H695.437C805.623 337 895 426.311 895 536.563C895 646.815 805.689 736.06 695.437 736.06H640.278L582.675 566.62H365.871L347.771 513.178H619.536Z" fill="#00B29E"/>
</svg>
